<svg width="31" height="46" viewBox="0 0 31 46" fill="none" xmlns="http://www.w3.org/2000/svg">
<path fill-rule="evenodd" clip-rule="evenodd" d="M15.801 5.92004C15.4031 5.70596 14.9243 5.70596 14.5263 5.92004L6.86508 10.0419C6.42914 10.2765 6.15726 10.7315 6.15726 11.2265V18.7098C6.15726 19.2048 6.42914 19.6598 6.86508 19.8943L14.5263 24.0162C14.9243 24.2303 15.4031 24.2303 15.801 24.0162L23.4622 19.8943C23.8982 19.6598 24.1701 19.2048 24.1701 18.7098V11.2265C24.1701 10.7315 23.8982 10.2765 23.4622 10.0419L15.801 5.92004ZM15.691 0.132844C15.3617 -0.0442816 14.9656 -0.0442814 14.6364 0.132845L1.6986 7.09357C1.33793 7.28762 1.11298 7.66408 1.11298 8.07365V21.8626C1.11298 22.2722 1.33793 22.6487 1.6986 22.8427L14.6364 29.8034C14.9656 29.9806 15.3617 29.9806 15.691 29.8034L28.6287 22.8427C28.9894 22.6487 29.2143 22.2722 29.2143 21.8626V8.07365C29.2143 7.66408 28.9894 7.28762 28.6287 7.09357L15.691 0.132844Z" fill="black"/>
<path d="M15.4268 31.7741C15.2624 31.8623 15.0648 31.8623 14.9005 31.7741L2.05532 24.8802C1.53919 24.6032 1.00052 25.209 1.33603 25.6892L14.7075 44.8263C14.929 45.1433 15.3983 45.1433 15.6198 44.8263L28.9912 25.6892C29.3267 25.209 28.788 24.6032 28.2719 24.8802L15.4268 31.7741Z" fill="black"/>
</svg>
